<svg width="159" height="63" viewBox="0 0 159 63" fill="none" xmlns="http://www.w3.org/2000/svg">
<path fill-rule="evenodd" clip-rule="evenodd" d="M29.446 20.3086H33.6337C32.6206 15.7318 29.3712 11.9986 25.089 10.3108V6.81491H27.9882C28.6557 6.81491 29.1967 6.27363 29.1967 5.60637C29.1967 4.93886 28.6557 4.39783 27.9882 4.39783H22.6719V13.762C23.53 14.005 24.3418 14.3575 25.089 14.8079C27.1368 16.0412 28.7037 17.9903 29.446 20.3086Z" fill="#FFFFFE"/>
<path fill-rule="evenodd" clip-rule="evenodd" d="M19.9541 33.316C14.4502 33.316 9.9883 28.854 9.9883 23.3499C9.9883 19.7243 11.9247 16.5516 14.8195 14.8079C15.5667 14.3575 16.3785 14.005 17.2363 13.762V4.39783H11.92C11.2528 4.39783 10.7117 4.93886 10.7117 5.60637C10.7117 6.27363 11.2528 6.81491 11.92 6.81491H14.8195V10.3108C9.62076 12.3597 5.93994 17.4233 5.93994 23.3499C5.93994 31.09 12.2143 37.3641 19.9541 37.3641C26.6493 37.3641 32.2442 32.668 33.6337 26.3909H29.446C28.16 30.4076 24.3975 33.316 19.9541 33.316Z" fill="#FFFFFE"/>
<path fill-rule="evenodd" clip-rule="evenodd" d="M22.1033 3.04153C22.1033 3.49099 21.739 3.85556 21.2893 3.85556C20.8398 3.85556 20.4752 3.49099 20.4752 3.04153C20.4752 2.59182 20.8398 2.2275 21.2893 2.2275C21.739 2.2275 22.1033 2.59182 22.1033 3.04153ZM20.6099 10.4099C21.0593 10.4099 21.4239 10.0453 21.4239 9.59582C21.4239 9.53147 21.4145 9.4696 21.4004 9.4097C21.316 9.05033 20.995 8.78204 20.6099 8.78204C20.2508 8.78204 19.9496 9.01593 19.8414 9.33842C19.8142 9.41985 19.7959 9.50549 19.7959 9.59582C19.7959 10.0453 20.1602 10.4099 20.6099 10.4099ZM20.7727 13.4199C20.6725 13.616 20.4708 13.7516 20.2354 13.7516C19.9884 13.7516 19.7766 13.6031 19.6825 13.3907C19.6491 13.3157 19.6298 13.2331 19.6298 13.146C19.6298 12.8113 19.901 12.5403 20.2354 12.5403C20.57 12.5403 20.8413 12.8113 20.8413 13.146C20.8413 13.245 20.8151 13.3373 20.7727 13.4199ZM15.5376 16.603C15.8722 16.603 16.1433 16.8741 16.1433 17.2087C16.1433 17.543 15.8722 17.8143 15.5376 17.8143C15.203 17.8143 14.932 17.543 14.932 17.2087C14.932 16.8741 15.203 16.603 15.5376 16.603ZM21.022 19.1978C21.5484 19.1978 21.9753 18.7709 21.9753 18.2442C21.9753 17.7178 21.5484 17.2908 21.022 17.2908C20.4953 17.2908 20.0684 17.7178 20.0684 18.2442C20.0684 18.7709 20.4953 19.1978 21.022 19.1978ZM15.8171 21.3179C15.8171 21.8067 16.2135 22.2032 16.7024 22.2032C17.1912 22.2032 17.5874 21.8067 17.5874 21.3179C17.5874 20.8291 17.1912 20.4329 16.7024 20.4329C16.2135 20.4329 15.8171 20.8291 15.8171 21.3179ZM16.0279 26.1377C16.5167 26.1377 16.913 26.5342 16.913 27.0228C16.913 27.5119 16.5167 27.9079 16.0279 27.9079C15.5389 27.9079 15.1426 27.5119 15.1426 27.0228C15.1426 26.5342 15.5389 26.1377 16.0279 26.1377ZM19.6679 29.1607C19.9983 29.1607 20.2664 29.4287 20.2664 29.7594C20.2664 30.0901 19.9983 30.3583 19.6679 30.3583C19.337 30.3583 19.0689 30.0901 19.0689 29.7594C19.0689 29.4287 19.337 29.1607 19.6679 29.1607ZM23.1379 27.4968C23.4685 27.4968 23.7366 27.7648 23.7366 28.0955C23.7366 28.4264 23.4685 28.6944 23.1379 28.6944C22.8072 28.6944 22.5391 28.4264 22.5391 28.0955C22.5391 27.7648 22.8072 27.4968 23.1379 27.4968ZM19.954 31.8181C23.9308 31.8181 27.2659 29.0761 28.1755 25.3801C26.1643 26.8317 23.396 26.5597 20.2391 24.8441C17.1756 23.1791 14.2959 24.1369 12.0283 26.334C13.2354 29.5379 16.3279 31.8181 19.954 31.8181ZM24.4385 23.8399C23.7955 23.8399 23.2742 23.3185 23.2742 22.6757C23.2742 22.0327 23.7955 21.5115 24.4385 21.5115C25.0815 21.5115 25.6027 22.0327 25.6027 22.6757C25.6027 23.3185 25.0815 23.8399 24.4385 23.8399ZM25.822 17.6386C25.822 17.3042 25.551 17.033 25.2164 17.033C24.8817 17.033 24.6107 17.3042 24.6107 17.6386C24.6107 17.9732 24.8817 18.2442 25.2164 18.2442C25.551 18.2442 25.822 17.9732 25.822 17.6386Z" fill="url(#paint0_linear)"/>
<path d="M39.9502 37V9.5056H44.9806V37H39.9502ZM60.697 35.0032H60.3898C59.801 35.72 59.0842 36.3344 58.2394 36.8464C57.4202 37.3584 56.3578 37.6144 55.0522 37.6144C54.0794 37.6144 53.1578 37.448 52.2874 37.1152C51.4426 36.808 50.7002 36.3728 50.0602 35.8096C49.4202 35.2464 48.921 34.568 48.5626 33.7744C48.2042 32.9808 48.025 32.1104 48.025 31.1632C48.025 30.1904 48.217 29.32 48.601 28.552C48.985 27.7584 49.5226 27.08 50.2138 26.5168C50.905 25.9536 51.7114 25.5312 52.633 25.2496C53.5802 24.9424 54.6042 24.7888 55.705 24.7888C56.9338 24.7888 57.945 24.8912 58.7386 25.096C59.5322 25.2752 60.185 25.4672 60.697 25.672V25.096C60.697 24.0976 60.3002 23.2784 59.5066 22.6384C58.713 21.9728 57.7274 21.64 56.5498 21.64C54.809 21.64 53.337 22.3696 52.1338 23.8288L48.4858 21.3328C50.4826 18.824 53.209 17.5696 56.665 17.5696C59.5834 17.5696 61.8106 18.2608 63.3466 19.6432C64.8826 21 65.6506 23.0224 65.6506 25.7104V37H60.697V35.0032ZM60.697 29.3584C60.1082 29.0768 59.4938 28.8592 58.8538 28.7056C58.2394 28.5264 57.561 28.4368 56.8186 28.4368C55.6154 28.4368 54.681 28.7056 54.0154 29.2432C53.3754 29.7552 53.0554 30.3952 53.0554 31.1632C53.0554 31.9312 53.3626 32.5456 53.977 33.0064C54.617 33.4672 55.3466 33.6976 56.1658 33.6976C56.8314 33.6976 57.4458 33.5824 58.009 33.352C58.5722 33.096 59.0458 32.776 59.4298 32.392C59.8394 31.9824 60.1466 31.5216 60.3514 31.0096C60.5818 30.472 60.697 29.9216 60.697 29.3584ZM69.6502 9.5056H74.6806V17.7616L74.3734 20.4496H74.6806C75.1414 19.656 75.8582 18.9776 76.831 18.4144C77.8038 17.8512 79.007 17.5696 80.4406 17.5696C81.6438 17.5696 82.783 17.8256 83.8582 18.3376C84.959 18.824 85.919 19.5152 86.7382 20.4112C87.583 21.2816 88.2486 22.3312 88.735 23.56C89.2214 24.7888 89.4646 26.1328 89.4646 27.592C89.4646 29.0512 89.2214 30.3952 88.735 31.624C88.2486 32.8528 87.583 33.9152 86.7382 34.8112C85.919 35.6816 84.959 36.3728 83.8582 36.8848C82.783 37.3712 81.6438 37.6144 80.4406 37.6144C79.007 37.6144 77.8038 37.3328 76.831 36.7696C75.8582 36.2064 75.1414 35.528 74.6806 34.7344H74.3734V37H69.6502V9.5056ZM79.4038 32.968C80.0694 32.968 80.6966 32.84 81.2854 32.584C81.8998 32.328 82.4374 31.9696 82.8982 31.5088C83.359 31.048 83.7302 30.4848 84.0118 29.8192C84.2934 29.1536 84.4342 28.4112 84.4342 27.592C84.4342 26.7728 84.2934 26.0304 84.0118 25.3648C83.7302 24.6992 83.359 24.136 82.8982 23.6752C82.4374 23.2144 81.8998 22.856 81.2854 22.6C80.6966 22.344 80.0694 22.216 79.4038 22.216C78.7382 22.216 78.0982 22.344 77.4838 22.6C76.895 22.8304 76.3702 23.176 75.9094 23.6368C75.4486 24.0976 75.0774 24.6608 74.7958 25.3264C74.5142 25.992 74.3734 26.7472 74.3734 27.592C74.3734 28.4368 74.5142 29.192 74.7958 29.8576C75.0774 30.5232 75.4486 31.0864 75.9094 31.5472C76.3702 32.008 76.895 32.3664 77.4838 32.6224C78.0982 32.8528 78.7382 32.968 79.4038 32.968ZM99.9373 37.6144C98.7085 37.6144 97.6077 37.4608 96.6349 37.1536C95.6877 36.8464 94.8557 36.4496 94.1389 35.9632C93.4477 35.4512 92.8589 34.8752 92.3725 34.2352C91.8861 33.5696 91.5149 32.904 91.2589 32.2384L95.7517 30.3184C96.1869 31.2912 96.7629 32.0208 97.4797 32.5072C98.2221 32.968 99.0413 33.1984 99.9373 33.1984C100.859 33.1984 101.589 33.032 102.126 32.6992C102.664 32.3664 102.933 31.9696 102.933 31.5088C102.933 30.9968 102.702 30.5872 102.241 30.28C101.806 29.9472 101.038 29.6528 99.9373 29.3968L97.2877 28.8208C96.6989 28.6928 96.0845 28.488 95.4445 28.2064C94.8301 27.9248 94.2669 27.5664 93.7549 27.1312C93.2429 26.696 92.8205 26.1712 92.4877 25.5568C92.1549 24.9424 91.9885 24.2256 91.9885 23.4064C91.9885 22.4848 92.1805 21.6656 92.5645 20.9488C92.9741 20.232 93.5245 19.6304 94.2157 19.144C94.9069 18.632 95.7133 18.248 96.6349 17.992C97.5821 17.7104 98.5933 17.5696 99.6685 17.5696C101.461 17.5696 103.061 17.928 104.469 18.6448C105.877 19.336 106.913 20.4496 107.579 21.9856L103.24 23.752C102.881 23.0096 102.357 22.472 101.665 22.1392C100.974 21.8064 100.283 21.64 99.5917 21.64C98.8749 21.64 98.2477 21.7936 97.7101 22.1008C97.1725 22.3824 96.9037 22.7536 96.9037 23.2144C96.9037 23.6496 97.1213 23.9952 97.5565 24.2512C98.0173 24.5072 98.6317 24.7376 99.3997 24.9424L102.28 25.6336C104.2 26.0944 105.621 26.8368 106.542 27.8608C107.489 28.8592 107.963 30.0496 107.963 31.432C107.963 32.2512 107.771 33.032 107.387 33.7744C107.003 34.5168 106.453 35.1824 105.736 35.7712C105.045 36.3344 104.2 36.7824 103.201 37.1152C102.229 37.448 101.141 37.6144 99.9373 37.6144Z" fill="#FFFFFE"/>
<path d="M8.6762 58.8H7.8482V52.356H8.8562L11.9882 57.369H12.0242L11.9882 56.127V52.356H12.8162V58.8H11.9522L8.6762 53.544H8.6402L8.6762 54.786V58.8ZM13.7188 56.595C13.7188 55.917 13.9318 55.356 14.3578 54.912C14.7898 54.468 15.3328 54.246 15.9868 54.246C16.6408 54.246 17.1808 54.468 17.6068 54.912C18.0388 55.356 18.2548 55.917 18.2548 56.595C18.2548 57.279 18.0388 57.84 17.6068 58.278C17.1808 58.722 16.6408 58.944 15.9868 58.944C15.3328 58.944 14.7898 58.722 14.3578 58.278C13.9318 57.834 13.7188 57.273 13.7188 56.595ZM14.5468 56.595C14.5468 57.069 14.6848 57.453 14.9608 57.747C15.2368 58.041 15.5788 58.188 15.9868 58.188C16.3948 58.188 16.7368 58.041 17.0128 57.747C17.2888 57.453 17.4268 57.069 17.4268 56.595C17.4268 56.127 17.2888 55.746 17.0128 55.452C16.7308 55.152 16.3888 55.002 15.9868 55.002C15.5848 55.002 15.2428 55.152 14.9608 55.452C14.6848 55.746 14.5468 56.127 14.5468 56.595ZM20.6211 58.872C20.2611 58.872 19.9611 58.761 19.7211 58.539C19.4871 58.317 19.3671 58.008 19.3611 57.612V55.146H18.5871V54.39H19.3611V53.04H20.1891V54.39H21.2691V55.146H20.1891V57.342C20.1891 57.636 20.2461 57.837 20.3601 57.945C20.4741 58.047 20.6031 58.098 20.7471 58.098C20.8131 58.098 20.8761 58.092 20.9361 58.08C21.0021 58.062 21.0621 58.041 21.1161 58.017L21.3771 58.755C21.1611 58.833 20.9091 58.872 20.6211 58.872ZM22.1007 52.356H22.9287V54.39L22.8927 55.002H22.9287C23.0547 54.786 23.2467 54.606 23.5047 54.462C23.7687 54.318 24.0417 54.246 24.3237 54.246C24.8637 54.246 25.2777 54.402 25.5657 54.714C25.8597 55.02 26.0067 55.458 26.0067 56.028V58.8H25.1787V56.19C25.1787 55.398 24.8277 55.002 24.1257 55.002C23.7897 55.002 23.5047 55.143 23.2707 55.425C23.0427 55.701 22.9287 56.025 22.9287 56.397V58.8H22.1007V52.356ZM28.0496 52.869C28.0496 53.031 27.9926 53.169 27.8786 53.283C27.7646 53.397 27.6266 53.454 27.4646 53.454C27.3026 53.454 27.1646 53.397 27.0506 53.283C26.9366 53.169 26.8796 53.031 26.8796 52.869C26.8796 52.707 26.9366 52.569 27.0506 52.455C27.1646 52.341 27.3026 52.284 27.4646 52.284C27.6266 52.284 27.7646 52.341 27.8786 52.455C27.9926 52.569 28.0496 52.707 28.0496 52.869ZM27.8786 54.39V58.8H27.0506V54.39H27.8786ZM28.9561 54.39H29.7481V55.002H29.7841C29.9101 54.786 30.1021 54.606 30.3601 54.462C30.6241 54.318 30.8971 54.246 31.1791 54.246C31.7191 54.246 32.1331 54.402 32.4211 54.714C32.7151 55.02 32.8621 55.458 32.8621 56.028V58.8H32.0341V56.082C32.0161 55.362 31.6531 55.002 30.9451 55.002C30.6151 55.002 30.3391 55.137 30.1171 55.407C29.8951 55.671 29.7841 55.989 29.7841 56.361V58.8H28.9561V54.39ZM35.7701 58.188C36.1781 58.188 36.5111 58.041 36.7691 57.747C37.0391 57.453 37.1741 57.069 37.1741 56.595C37.1741 56.133 37.0391 55.752 36.7691 55.452C36.5051 55.152 36.1721 55.002 35.7701 55.002C35.3741 55.002 35.0411 55.152 34.7711 55.452C34.5011 55.752 34.3661 56.133 34.3661 56.595C34.3661 57.063 34.5011 57.444 34.7711 57.738C35.0411 58.038 35.3741 58.188 35.7701 58.188ZM35.7431 60.888C35.4971 60.888 35.2661 60.855 35.0501 60.789C34.8341 60.729 34.6361 60.642 34.4561 60.528C34.2821 60.414 34.1321 60.279 34.0061 60.123C33.8801 59.967 33.7841 59.793 33.7181 59.601L34.5011 59.277C34.5911 59.535 34.7471 59.742 34.9691 59.898C35.1911 60.054 35.4491 60.132 35.7431 60.132C36.1931 60.132 36.5441 59.997 36.7961 59.727C37.0481 59.457 37.1741 59.085 37.1741 58.611V58.188H37.1381C36.9821 58.422 36.7691 58.608 36.4991 58.746C36.2351 58.878 35.9471 58.944 35.6351 58.944C35.0591 58.944 34.5641 58.719 34.1501 58.269C33.7421 57.807 33.5381 57.249 33.5381 56.595C33.5381 55.941 33.7421 55.386 34.1501 54.93C34.5641 54.474 35.0591 54.246 35.6351 54.246C35.9471 54.246 36.2351 54.315 36.4991 54.453C36.7691 54.585 36.9821 54.768 37.1381 55.002H37.1741V54.39H37.9661V58.611C37.9661 59.319 37.7651 59.874 37.3631 60.276C36.9551 60.684 36.4151 60.888 35.7431 60.888ZM42.0242 52.869C42.0242 53.031 41.9672 53.169 41.8532 53.283C41.7392 53.397 41.6012 53.454 41.4392 53.454C41.2772 53.454 41.1392 53.397 41.0252 53.283C40.9112 53.169 40.8542 53.031 40.8542 52.869C40.8542 52.707 40.9112 52.569 41.0252 52.455C41.1392 52.341 41.2772 52.284 41.4392 52.284C41.6012 52.284 41.7392 52.341 41.8532 52.455C41.9672 52.569 42.0242 52.707 42.0242 52.869ZM41.8532 54.39V58.8H41.0252V54.39H41.8532ZM43.7588 58.8H42.9308V54.39H43.7228V55.002H43.7588C43.8848 54.786 44.0768 54.606 44.3348 54.462C44.5988 54.318 44.8598 54.246 45.1178 54.246C45.4418 54.246 45.7268 54.321 45.9728 54.471C46.2188 54.621 46.3988 54.828 46.5128 55.092C46.8788 54.528 47.3858 54.246 48.0338 54.246C48.5438 54.246 48.9368 54.402 49.2128 54.714C49.4888 55.026 49.6268 55.47 49.6268 56.046V58.8H48.7988V56.172C48.7988 55.758 48.7238 55.461 48.5738 55.281C48.4238 55.095 48.1718 55.002 47.8178 55.002C47.4998 55.002 47.2328 55.137 47.0168 55.407C46.8008 55.677 46.6928 55.995 46.6928 56.361V58.8H45.8648V56.172C45.8648 55.758 45.7898 55.461 45.6398 55.281C45.4898 55.095 45.2378 55.002 44.8838 55.002C44.5658 55.002 44.2988 55.137 44.0828 55.407C43.8668 55.677 43.7588 55.995 43.7588 56.361V58.8ZM52.7548 58.188C53.1508 58.188 53.4838 58.038 53.7538 57.738C54.0238 57.444 54.1588 57.063 54.1588 56.595C54.1588 56.133 54.0238 55.752 53.7538 55.452C53.4838 55.152 53.1508 55.002 52.7548 55.002C52.3528 55.002 52.0168 55.152 51.7468 55.452C51.4828 55.752 51.3508 56.133 51.3508 56.595C51.3508 57.063 51.4828 57.447 51.7468 57.747C52.0168 58.041 52.3528 58.188 52.7548 58.188ZM52.8898 58.944C52.5658 58.944 52.2688 58.875 51.9988 58.737C51.7348 58.599 51.5308 58.416 51.3868 58.188H51.3508L51.3868 58.8V60.744H50.5588V54.39H51.3508V55.002H51.3868C51.5308 54.774 51.7348 54.591 51.9988 54.453C52.2688 54.315 52.5658 54.246 52.8898 54.246C53.4718 54.246 53.9638 54.474 54.3658 54.93C54.7798 55.392 54.9868 55.947 54.9868 56.595C54.9868 57.249 54.7798 57.804 54.3658 58.26C53.9638 58.716 53.4718 58.944 52.8898 58.944ZM55.4932 56.595C55.4932 55.917 55.7062 55.356 56.1322 54.912C56.5642 54.468 57.1072 54.246 57.7612 54.246C58.4152 54.246 58.9552 54.468 59.3812 54.912C59.8132 55.356 60.0292 55.917 60.0292 56.595C60.0292 57.279 59.8132 57.84 59.3812 58.278C58.9552 58.722 58.4152 58.944 57.7612 58.944C57.1072 58.944 56.5642 58.722 56.1322 58.278C55.7062 57.834 55.4932 57.273 55.4932 56.595ZM56.3212 56.595C56.3212 57.069 56.4592 57.453 56.7352 57.747C57.0112 58.041 57.3532 58.188 57.7612 58.188C58.1692 58.188 58.5112 58.041 58.7872 57.747C59.0632 57.453 59.2012 57.069 59.2012 56.595C59.2012 56.127 59.0632 55.746 58.7872 55.452C58.5052 55.152 58.1632 55.002 57.7612 55.002C57.3592 55.002 57.0172 55.152 56.7352 55.452C56.4592 55.746 56.3212 56.127 56.3212 56.595ZM64.1124 57.576C64.1124 57.96 63.9444 58.284 63.6084 58.548C63.2724 58.812 62.8494 58.944 62.3394 58.944C61.8954 58.944 61.5054 58.83 61.1694 58.602C60.8334 58.368 60.5934 58.062 60.4494 57.684L61.1874 57.369C61.2954 57.633 61.4514 57.84 61.6554 57.99C61.8654 58.134 62.0934 58.206 62.3394 58.206C62.6034 58.206 62.8224 58.149 62.9964 58.035C63.1764 57.921 63.2664 57.786 63.2664 57.63C63.2664 57.348 63.0504 57.141 62.6184 57.009L61.8624 56.82C61.0044 56.604 60.5754 56.19 60.5754 55.578C60.5754 55.176 60.7374 54.855 61.0614 54.615C61.3914 54.369 61.8114 54.246 62.3214 54.246C62.7114 54.246 63.0624 54.339 63.3744 54.525C63.6924 54.711 63.9144 54.96 64.0404 55.272L63.3024 55.578C63.2184 55.392 63.0804 55.248 62.8884 55.146C62.7024 55.038 62.4924 54.984 62.2584 54.984C62.0424 54.984 61.8474 55.038 61.6734 55.146C61.5054 55.254 61.4214 55.386 61.4214 55.542C61.4214 55.794 61.6584 55.974 62.1324 56.082L62.7984 56.253C63.6744 56.469 64.1124 56.91 64.1124 57.576ZM68.2081 57.576C68.2081 57.96 68.0401 58.284 67.7041 58.548C67.3681 58.812 66.9451 58.944 66.4351 58.944C65.9911 58.944 65.6011 58.83 65.2651 58.602C64.9291 58.368 64.6891 58.062 64.5451 57.684L65.2831 57.369C65.3911 57.633 65.5471 57.84 65.7511 57.99C65.9611 58.134 66.1891 58.206 66.4351 58.206C66.6991 58.206 66.9181 58.149 67.0921 58.035C67.2721 57.921 67.3621 57.786 67.3621 57.63C67.3621 57.348 67.1461 57.141 66.7141 57.009L65.9581 56.82C65.1001 56.604 64.6711 56.19 64.6711 55.578C64.6711 55.176 64.8331 54.855 65.1571 54.615C65.4871 54.369 65.9071 54.246 66.4171 54.246C66.8071 54.246 67.1581 54.339 67.4701 54.525C67.7881 54.711 68.0101 54.96 68.1361 55.272L67.3981 55.578C67.3141 55.392 67.1761 55.248 66.9841 55.146C66.7981 55.038 66.5881 54.984 66.3541 54.984C66.1381 54.984 65.9431 55.038 65.7691 55.146C65.6011 55.254 65.5171 55.386 65.5171 55.542C65.5171 55.794 65.7541 55.974 66.2281 56.082L66.8941 56.253C67.7701 56.469 68.2081 56.91 68.2081 57.576ZM69.9559 52.869C69.9559 53.031 69.8989 53.169 69.7849 53.283C69.6709 53.397 69.5329 53.454 69.3709 53.454C69.2089 53.454 69.0709 53.397 68.9569 53.283C68.8429 53.169 68.7859 53.031 68.7859 52.869C68.7859 52.707 68.8429 52.569 68.9569 52.455C69.0709 52.341 69.2089 52.284 69.3709 52.284C69.5329 52.284 69.6709 52.341 69.7849 52.455C69.8989 52.569 69.9559 52.707 69.9559 52.869ZM69.7849 54.39V58.8H68.9569V54.39H69.7849ZM73.1934 58.944C72.8694 58.944 72.5724 58.875 72.3024 58.737C72.0384 58.599 71.8344 58.416 71.6904 58.188H71.6544V58.8H70.8624V52.356H71.6904V54.39L71.6544 55.002H71.6904C71.8344 54.774 72.0384 54.591 72.3024 54.453C72.5724 54.315 72.8694 54.246 73.1934 54.246C73.7754 54.246 74.2674 54.474 74.6694 54.93C75.0834 55.392 75.2904 55.947 75.2904 56.595C75.2904 57.249 75.0834 57.804 74.6694 58.26C74.2674 58.716 73.7754 58.944 73.1934 58.944ZM73.0584 58.188C73.4544 58.188 73.7874 58.038 74.0574 57.738C74.3274 57.444 74.4624 57.063 74.4624 56.595C74.4624 56.133 74.3274 55.752 74.0574 55.452C73.7874 55.152 73.4544 55.002 73.0584 55.002C72.6564 55.002 72.3204 55.152 72.0504 55.452C71.7864 55.752 71.6544 56.133 71.6544 56.595C71.6544 57.063 71.7864 57.447 72.0504 57.747C72.3204 58.041 72.6564 58.188 73.0584 58.188ZM76.832 52.356V58.8H76.004V52.356H76.832ZM79.777 58.944C79.129 58.944 78.595 58.722 78.175 58.278C77.755 57.834 77.545 57.273 77.545 56.595C77.545 55.923 77.749 55.365 78.157 54.921C78.565 54.471 79.087 54.246 79.723 54.246C80.377 54.246 80.896 54.459 81.28 54.885C81.67 55.305 81.865 55.896 81.865 56.658L81.856 56.748H78.391C78.403 57.18 78.547 57.528 78.823 57.792C79.099 58.056 79.429 58.188 79.813 58.188C80.341 58.188 80.755 57.924 81.055 57.396L81.793 57.756C81.595 58.128 81.319 58.419 80.965 58.629C80.617 58.839 80.221 58.944 79.777 58.944ZM78.454 56.064H80.983C80.959 55.758 80.833 55.506 80.605 55.308C80.383 55.104 80.083 55.002 79.705 55.002C79.393 55.002 79.123 55.098 78.895 55.29C78.673 55.482 78.526 55.74 78.454 56.064Z" fill="#FFFFFE"/>
<defs>
<linearGradient id="paint0_linear" x1="10.4647" y1="2.2275" x2="10.4647" y2="37.549" gradientUnits="userSpaceOnUse">
<stop stop-color="#7CD9EE"/>
<stop offset="1" stop-color="#4FA1FF"/>
</linearGradient>
</defs>
</svg>
