<svg width="159" height="63" viewBox="0 0 159 63" fill="none" xmlns="http://www.w3.org/2000/svg">
<path fill-rule="evenodd" clip-rule="evenodd" d="M29.446 20.3086H33.6337C32.6206 15.7318 29.3712 11.9986 25.089 10.3108V6.81491H27.9882C28.6557 6.81491 29.1967 6.27363 29.1967 5.60637C29.1967 4.93886 28.6557 4.39783 27.9882 4.39783H22.6719V13.762C23.53 14.005 24.3418 14.3575 25.089 14.8079C27.1368 16.0412 28.7037 17.9903 29.446 20.3086Z" fill="#FFFFFE"/>
<path fill-rule="evenodd" clip-rule="evenodd" d="M19.9541 33.316C14.4502 33.316 9.9883 28.854 9.9883 23.3499C9.9883 19.7243 11.9247 16.5516 14.8195 14.8079C15.5667 14.3575 16.3785 14.005 17.2363 13.762V4.39783H11.92C11.2528 4.39783 10.7117 4.93886 10.7117 5.60637C10.7117 6.27363 11.2528 6.81491 11.92 6.81491H14.8195V10.3108C9.62076 12.3597 5.93994 17.4233 5.93994 23.3499C5.93994 31.09 12.2143 37.3641 19.9541 37.3641C26.6493 37.3641 32.2442 32.668 33.6337 26.3909H29.446C28.16 30.4076 24.3975 33.316 19.9541 33.316Z" fill="#FFFFFE"/>
<path fill-rule="evenodd" clip-rule="evenodd" d="M22.1033 3.04153C22.1033 3.49099 21.739 3.85556 21.2893 3.85556C20.8398 3.85556 20.4752 3.49099 20.4752 3.04153C20.4752 2.59182 20.8398 2.2275 21.2893 2.2275C21.739 2.2275 22.1033 2.59182 22.1033 3.04153ZM20.6099 10.4099C21.0593 10.4099 21.4239 10.0453 21.4239 9.59582C21.4239 9.53147 21.4145 9.4696 21.4004 9.4097C21.316 9.05033 20.995 8.78204 20.6099 8.78204C20.2508 8.78204 19.9496 9.01593 19.8414 9.33842C19.8142 9.41985 19.7959 9.50549 19.7959 9.59582C19.7959 10.0453 20.1602 10.4099 20.6099 10.4099ZM20.7727 13.4199C20.6725 13.616 20.4708 13.7516 20.2354 13.7516C19.9884 13.7516 19.7766 13.6031 19.6825 13.3907C19.6491 13.3157 19.6298 13.2331 19.6298 13.146C19.6298 12.8113 19.901 12.5403 20.2354 12.5403C20.57 12.5403 20.8413 12.8113 20.8413 13.146C20.8413 13.245 20.8151 13.3373 20.7727 13.4199ZM15.5376 16.603C15.8722 16.603 16.1433 16.8741 16.1433 17.2087C16.1433 17.543 15.8722 17.8143 15.5376 17.8143C15.203 17.8143 14.932 17.543 14.932 17.2087C14.932 16.8741 15.203 16.603 15.5376 16.603ZM21.022 19.1978C21.5484 19.1978 21.9753 18.7709 21.9753 18.2442C21.9753 17.7178 21.5484 17.2908 21.022 17.2908C20.4953 17.2908 20.0684 17.7178 20.0684 18.2442C20.0684 18.7709 20.4953 19.1978 21.022 19.1978ZM15.8171 21.3179C15.8171 21.8067 16.2135 22.2032 16.7024 22.2032C17.1912 22.2032 17.5874 21.8067 17.5874 21.3179C17.5874 20.8291 17.1912 20.4329 16.7024 20.4329C16.2135 20.4329 15.8171 20.8291 15.8171 21.3179ZM16.0279 26.1377C16.5167 26.1377 16.913 26.5342 16.913 27.0228C16.913 27.5119 16.5167 27.9079 16.0279 27.9079C15.5389 27.9079 15.1426 27.5119 15.1426 27.0228C15.1426 26.5342 15.5389 26.1377 16.0279 26.1377ZM19.6679 29.1607C19.9983 29.1607 20.2664 29.4287 20.2664 29.7594C20.2664 30.0901 19.9983 30.3583 19.6679 30.3583C19.337 30.3583 19.0689 30.0901 19.0689 29.7594C19.0689 29.4287 19.337 29.1607 19.6679 29.1607ZM23.1379 27.4968C23.4685 27.4968 23.7366 27.7648 23.7366 28.0955C23.7366 28.4264 23.4685 28.6944 23.1379 28.6944C22.8072 28.6944 22.5391 28.4264 22.5391 28.0955C22.5391 27.7648 22.8072 27.4968 23.1379 27.4968ZM19.954 31.8181C23.9308 31.8181 27.2659 29.0761 28.1755 25.3801C26.1643 26.8317 23.396 26.5597 20.2391 24.8441C17.1756 23.1791 14.2959 24.1369 12.0283 26.334C13.2354 29.5379 16.3279 31.8181 19.954 31.8181ZM24.4385 23.8399C23.7955 23.8399 23.2742 23.3185 23.2742 22.6757C23.2742 22.0327 23.7955 21.5115 24.4385 21.5115C25.0815 21.5115 25.6027 22.0327 25.6027 22.6757C25.6027 23.3185 25.0815 23.8399 24.4385 23.8399ZM25.822 17.6386C25.822 17.3042 25.551 17.033 25.2164 17.033C24.8817 17.033 24.6107 17.3042 24.6107 17.6386C24.6107 17.9732 24.8817 18.2442 25.2164 18.2442C25.551 18.2442 25.822 17.9732 25.822 17.6386Z" fill="url(#paint0_linear)"/>
<path d="M39.9502 37V9.5056H44.9806V37H39.9502ZM60.697 35.0032H60.3898C59.801 35.72 59.0842 36.3344 58.2394 36.8464C57.4202 37.3584 56.3578 37.6144 55.0522 37.6144C54.0794 37.6144 53.1578 37.448 52.2874 37.1152C51.4426 36.808 50.7002 36.3728 50.0602 35.8096C49.4202 35.2464 48.921 34.568 48.5626 33.7744C48.2042 32.9808 48.025 32.1104 48.025 31.1632C48.025 30.1904 48.217 29.32 48.601 28.552C48.985 27.7584 49.5226 27.08 50.2138 26.5168C50.905 25.9536 51.7114 25.5312 52.633 25.2496C53.5802 24.9424 54.6042 24.7888 55.705 24.7888C56.9338 24.7888 57.945 24.8912 58.7386 25.096C59.5322 25.2752 60.185 25.4672 60.697 25.672V25.096C60.697 24.0976 60.3002 23.2784 59.5066 22.6384C58.713 21.9728 57.7274 21.64 56.5498 21.64C54.809 21.64 53.337 22.3696 52.1338 23.8288L48.4858 21.3328C50.4826 18.824 53.209 17.5696 56.665 17.5696C59.5834 17.5696 61.8106 18.2608 63.3466 19.6432C64.8826 21 65.6506 23.0224 65.6506 25.7104V37H60.697V35.0032ZM60.697 29.3584C60.1082 29.0768 59.4938 28.8592 58.8538 28.7056C58.2394 28.5264 57.561 28.4368 56.8186 28.4368C55.6154 28.4368 54.681 28.7056 54.0154 29.2432C53.3754 29.7552 53.0554 30.3952 53.0554 31.1632C53.0554 31.9312 53.3626 32.5456 53.977 33.0064C54.617 33.4672 55.3466 33.6976 56.1658 33.6976C56.8314 33.6976 57.4458 33.5824 58.009 33.352C58.5722 33.096 59.0458 32.776 59.4298 32.392C59.8394 31.9824 60.1466 31.5216 60.3514 31.0096C60.5818 30.472 60.697 29.9216 60.697 29.3584ZM69.6502 9.5056H74.6806V17.7616L74.3734 20.4496H74.6806C75.1414 19.656 75.8582 18.9776 76.831 18.4144C77.8038 17.8512 79.007 17.5696 80.4406 17.5696C81.6438 17.5696 82.783 17.8256 83.8582 18.3376C84.959 18.824 85.919 19.5152 86.7382 20.4112C87.583 21.2816 88.2486 22.3312 88.735 23.56C89.2214 24.7888 89.4646 26.1328 89.4646 27.592C89.4646 29.0512 89.2214 30.3952 88.735 31.624C88.2486 32.8528 87.583 33.9152 86.7382 34.8112C85.919 35.6816 84.959 36.3728 83.8582 36.8848C82.783 37.3712 81.6438 37.6144 80.4406 37.6144C79.007 37.6144 77.8038 37.3328 76.831 36.7696C75.8582 36.2064 75.1414 35.528 74.6806 34.7344H74.3734V37H69.6502V9.5056ZM79.4038 32.968C80.0694 32.968 80.6966 32.84 81.2854 32.584C81.8998 32.328 82.4374 31.9696 82.8982 31.5088C83.359 31.048 83.7302 30.4848 84.0118 29.8192C84.2934 29.1536 84.4342 28.4112 84.4342 27.592C84.4342 26.7728 84.2934 26.0304 84.0118 25.3648C83.7302 24.6992 83.359 24.136 82.8982 23.6752C82.4374 23.2144 81.8998 22.856 81.2854 22.6C80.6966 22.344 80.0694 22.216 79.4038 22.216C78.7382 22.216 78.0982 22.344 77.4838 22.6C76.895 22.8304 76.3702 23.176 75.9094 23.6368C75.4486 24.0976 75.0774 24.6608 74.7958 25.3264C74.5142 25.992 74.3734 26.7472 74.3734 27.592C74.3734 28.4368 74.5142 29.192 74.7958 29.8576C75.0774 30.5232 75.4486 31.0864 75.9094 31.5472C76.3702 32.008 76.895 32.3664 77.4838 32.6224C78.0982 32.8528 78.7382 32.968 79.4038 32.968ZM99.9373 37.6144C98.7085 37.6144 97.6077 37.4608 96.6349 37.1536C95.6877 36.8464 94.8557 36.4496 94.1389 35.9632C93.4477 35.4512 92.8589 34.8752 92.3725 34.2352C91.8861 33.5696 91.5149 32.904 91.2589 32.2384L95.7517 30.3184C96.1869 31.2912 96.7629 32.0208 97.4797 32.5072C98.2221 32.968 99.0413 33.1984 99.9373 33.1984C100.859 33.1984 101.589 33.032 102.126 32.6992C102.664 32.3664 102.933 31.9696 102.933 31.5088C102.933 30.9968 102.702 30.5872 102.241 30.28C101.806 29.9472 101.038 29.6528 99.9373 29.3968L97.2877 28.8208C96.6989 28.6928 96.0845 28.488 95.4445 28.2064C94.8301 27.9248 94.2669 27.5664 93.7549 27.1312C93.2429 26.696 92.8205 26.1712 92.4877 25.5568C92.1549 24.9424 91.9885 24.2256 91.9885 23.4064C91.9885 22.4848 92.1805 21.6656 92.5645 20.9488C92.9741 20.232 93.5245 19.6304 94.2157 19.144C94.9069 18.632 95.7133 18.248 96.6349 17.992C97.5821 17.7104 98.5933 17.5696 99.6685 17.5696C101.461 17.5696 103.061 17.928 104.469 18.6448C105.877 19.336 106.913 20.4496 107.579 21.9856L103.24 23.752C102.881 23.0096 102.357 22.472 101.665 22.1392C100.974 21.8064 100.283 21.64 99.5917 21.64C98.8749 21.64 98.2477 21.7936 97.7101 22.1008C97.1725 22.3824 96.9037 22.7536 96.9037 23.2144C96.9037 23.6496 97.1213 23.9952 97.5565 24.2512C98.0173 24.5072 98.6317 24.7376 99.3997 24.9424L102.28 25.6336C104.2 26.0944 105.621 26.8368 106.542 27.8608C107.489 28.8592 107.963 30.0496 107.963 31.432C107.963 32.2512 107.771 33.032 107.387 33.7744C107.003 34.5168 106.453 35.1824 105.736 35.7712C105.045 36.3344 104.2 36.7824 103.201 37.1152C102.229 37.448 101.141 37.6144 99.9373 37.6144Z" fill="#FFFFFE"/>
<path d="M8.9714 59.8H7.9778V52.0672H9.1874L12.9458 58.0828H12.989L12.9458 56.5924V52.0672H13.9394V59.8H12.9026L8.9714 53.4928H8.9282L8.9714 54.9832V59.8ZM15.0225 57.154C15.0225 56.3404 15.2781 55.6672 15.7893 55.1344C16.3077 54.6016 16.9593 54.3352 17.7441 54.3352C18.5289 54.3352 19.1769 54.6016 19.6881 55.1344C20.2065 55.6672 20.4657 56.3404 20.4657 57.154C20.4657 57.9748 20.2065 58.648 19.6881 59.1736C19.1769 59.7064 18.5289 59.9728 17.7441 59.9728C16.9593 59.9728 16.3077 59.7064 15.7893 59.1736C15.2781 58.6408 15.0225 57.9676 15.0225 57.154ZM16.0161 57.154C16.0161 57.7228 16.1817 58.1836 16.5129 58.5364C16.8441 58.8892 17.2545 59.0656 17.7441 59.0656C18.2337 59.0656 18.6441 58.8892 18.9753 58.5364C19.3065 58.1836 19.4721 57.7228 19.4721 57.154C19.4721 56.5924 19.3065 56.1352 18.9753 55.7824C18.6369 55.4224 18.2265 55.2424 17.7441 55.2424C17.2617 55.2424 16.8513 55.4224 16.5129 55.7824C16.1817 56.1352 16.0161 56.5924 16.0161 57.154ZM23.3053 59.8864C22.8733 59.8864 22.5133 59.7532 22.2253 59.4868C21.9445 59.2204 21.8005 58.8496 21.7933 58.3744V55.4152H20.8645V54.508H21.7933V52.888H22.7869V54.508H24.0829V55.4152H22.7869V58.0504C22.7869 58.4032 22.8553 58.6444 22.9921 58.774C23.1289 58.8964 23.2837 58.9576 23.4565 58.9576C23.5357 58.9576 23.6113 58.9504 23.6833 58.936C23.7625 58.9144 23.8345 58.8892 23.8993 58.8604L24.2125 59.746C23.9533 59.8396 23.6509 59.8864 23.3053 59.8864ZM25.0808 52.0672H26.0744V54.508L26.0312 55.2424H26.0744C26.2256 54.9832 26.456 54.7672 26.7656 54.5944C27.0824 54.4216 27.41 54.3352 27.7484 54.3352C28.3964 54.3352 28.8932 54.5224 29.2388 54.8968C29.5916 55.264 29.768 55.7896 29.768 56.4736V59.8H28.7744V56.668C28.7744 55.7176 28.3532 55.2424 27.5108 55.2424C27.1076 55.2424 26.7656 55.4116 26.4848 55.75C26.2112 56.0812 26.0744 56.47 26.0744 56.9164V59.8H25.0808V52.0672ZM32.2195 52.6828C32.2195 52.8772 32.1511 53.0428 32.0143 53.1796C31.8775 53.3164 31.7119 53.3848 31.5175 53.3848C31.3231 53.3848 31.1575 53.3164 31.0207 53.1796C30.8839 53.0428 30.8155 52.8772 30.8155 52.6828C30.8155 52.4884 30.8839 52.3228 31.0207 52.186C31.1575 52.0492 31.3231 51.9808 31.5175 51.9808C31.7119 51.9808 31.8775 52.0492 32.0143 52.186C32.1511 52.3228 32.2195 52.4884 32.2195 52.6828ZM32.0143 54.508V59.8H31.0207V54.508H32.0143ZM33.3073 54.508H34.2577V55.2424H34.3009C34.4521 54.9832 34.6825 54.7672 34.9921 54.5944C35.3089 54.4216 35.6365 54.3352 35.9749 54.3352C36.6229 54.3352 37.1197 54.5224 37.4653 54.8968C37.8181 55.264 37.9945 55.7896 37.9945 56.4736V59.8H37.0009V56.5384C36.9793 55.6744 36.5437 55.2424 35.6941 55.2424C35.2981 55.2424 34.9669 55.4044 34.7005 55.7284C34.4341 56.0452 34.3009 56.4268 34.3009 56.8732V59.8H33.3073V54.508ZM41.4841 59.0656C41.9737 59.0656 42.3733 58.8892 42.6829 58.5364C43.0069 58.1836 43.1689 57.7228 43.1689 57.154C43.1689 56.5996 43.0069 56.1424 42.6829 55.7824C42.3661 55.4224 41.9665 55.2424 41.4841 55.2424C41.0089 55.2424 40.6093 55.4224 40.2853 55.7824C39.9613 56.1424 39.7993 56.5996 39.7993 57.154C39.7993 57.7156 39.9613 58.1728 40.2853 58.5256C40.6093 58.8856 41.0089 59.0656 41.4841 59.0656ZM41.4517 62.3056C41.1565 62.3056 40.8793 62.266 40.6201 62.1868C40.3609 62.1148 40.1233 62.0104 39.9073 61.8736C39.6985 61.7368 39.5185 61.5748 39.3673 61.3876C39.2161 61.2004 39.1009 60.9916 39.0217 60.7612L39.9613 60.3724C40.0693 60.682 40.2565 60.9304 40.5229 61.1176C40.7893 61.3048 41.0989 61.3984 41.4517 61.3984C41.9917 61.3984 42.4129 61.2364 42.7153 60.9124C43.0177 60.5884 43.1689 60.142 43.1689 59.5732V59.0656H43.1257C42.9385 59.3464 42.6829 59.5696 42.3589 59.7352C42.0421 59.8936 41.6965 59.9728 41.3221 59.9728C40.6309 59.9728 40.0369 59.7028 39.5401 59.1628C39.0505 58.6084 38.8057 57.9388 38.8057 57.154C38.8057 56.3692 39.0505 55.7032 39.5401 55.156C40.0369 54.6088 40.6309 54.3352 41.3221 54.3352C41.6965 54.3352 42.0421 54.418 42.3589 54.5836C42.6829 54.742 42.9385 54.9616 43.1257 55.2424H43.1689V54.508H44.1193V59.5732C44.1193 60.4228 43.8781 61.0888 43.3957 61.5712C42.9061 62.0608 42.2581 62.3056 41.4517 62.3056ZM48.989 52.6828C48.989 52.8772 48.9206 53.0428 48.7838 53.1796C48.647 53.3164 48.4814 53.3848 48.287 53.3848C48.0926 53.3848 47.927 53.3164 47.7902 53.1796C47.6534 53.0428 47.585 52.8772 47.585 52.6828C47.585 52.4884 47.6534 52.3228 47.7902 52.186C47.927 52.0492 48.0926 51.9808 48.287 51.9808C48.4814 51.9808 48.647 52.0492 48.7838 52.186C48.9206 52.3228 48.989 52.4884 48.989 52.6828ZM48.7838 54.508V59.8H47.7902V54.508H48.7838ZM51.0705 59.8H50.0769V54.508H51.0273V55.2424H51.0705C51.2217 54.9832 51.4521 54.7672 51.7617 54.5944C52.0785 54.4216 52.3917 54.3352 52.7013 54.3352C53.0901 54.3352 53.4321 54.4252 53.7273 54.6052C54.0225 54.7852 54.2385 55.0336 54.3753 55.3504C54.8145 54.6736 55.4229 54.3352 56.2005 54.3352C56.8125 54.3352 57.2841 54.5224 57.6153 54.8968C57.9465 55.2712 58.1121 55.804 58.1121 56.4952V59.8H57.1185V56.6464C57.1185 56.1496 57.0285 55.7932 56.8485 55.5772C56.6685 55.354 56.3661 55.2424 55.9413 55.2424C55.5597 55.2424 55.2393 55.4044 54.9801 55.7284C54.7209 56.0524 54.5913 56.434 54.5913 56.8732V59.8H53.5977V56.6464C53.5977 56.1496 53.5077 55.7932 53.3277 55.5772C53.1477 55.354 52.8453 55.2424 52.4205 55.2424C52.0389 55.2424 51.7185 55.4044 51.4593 55.7284C51.2001 56.0524 51.0705 56.434 51.0705 56.8732V59.8ZM61.8657 59.0656C62.3409 59.0656 62.7405 58.8856 63.0645 58.5256C63.3885 58.1728 63.5505 57.7156 63.5505 57.154C63.5505 56.5996 63.3885 56.1424 63.0645 55.7824C62.7405 55.4224 62.3409 55.2424 61.8657 55.2424C61.3833 55.2424 60.9801 55.4224 60.6561 55.7824C60.3393 56.1424 60.1809 56.5996 60.1809 57.154C60.1809 57.7156 60.3393 58.1764 60.6561 58.5364C60.9801 58.8892 61.3833 59.0656 61.8657 59.0656ZM62.0277 59.9728C61.6389 59.9728 61.2825 59.89 60.9585 59.7244C60.6417 59.5588 60.3969 59.3392 60.2241 59.0656H60.1809L60.2241 59.8V62.1328H59.2305V54.508H60.1809V55.2424H60.2241C60.3969 54.9688 60.6417 54.7492 60.9585 54.5836C61.2825 54.418 61.6389 54.3352 62.0277 54.3352C62.7261 54.3352 63.3165 54.6088 63.7989 55.156C64.2957 55.7104 64.5441 56.3764 64.5441 57.154C64.5441 57.9388 64.2957 58.6048 63.7989 59.152C63.3165 59.6992 62.7261 59.9728 62.0277 59.9728ZM65.1518 57.154C65.1518 56.3404 65.4074 55.6672 65.9186 55.1344C66.437 54.6016 67.0886 54.3352 67.8734 54.3352C68.6582 54.3352 69.3062 54.6016 69.8174 55.1344C70.3358 55.6672 70.595 56.3404 70.595 57.154C70.595 57.9748 70.3358 58.648 69.8174 59.1736C69.3062 59.7064 68.6582 59.9728 67.8734 59.9728C67.0886 59.9728 66.437 59.7064 65.9186 59.1736C65.4074 58.6408 65.1518 57.9676 65.1518 57.154ZM66.1454 57.154C66.1454 57.7228 66.311 58.1836 66.6422 58.5364C66.9734 58.8892 67.3838 59.0656 67.8734 59.0656C68.363 59.0656 68.7734 58.8892 69.1046 58.5364C69.4358 58.1836 69.6014 57.7228 69.6014 57.154C69.6014 56.5924 69.4358 56.1352 69.1046 55.7824C68.7662 55.4224 68.3558 55.2424 67.8734 55.2424C67.391 55.2424 66.9806 55.4224 66.6422 55.7824C66.311 56.1352 66.1454 56.5924 66.1454 57.154ZM75.4948 58.3312C75.4948 58.792 75.2932 59.1808 74.89 59.4976C74.4868 59.8144 73.9792 59.9728 73.3672 59.9728C72.8344 59.9728 72.3664 59.836 71.9632 59.5624C71.56 59.2816 71.272 58.9144 71.0992 58.4608L71.9848 58.0828C72.1144 58.3996 72.3016 58.648 72.5464 58.828C72.7984 59.0008 73.072 59.0872 73.3672 59.0872C73.684 59.0872 73.9468 59.0188 74.1556 58.882C74.3716 58.7452 74.4796 58.5832 74.4796 58.396C74.4796 58.0576 74.2204 57.8092 73.702 57.6508L72.7948 57.424C71.7652 57.1648 71.2504 56.668 71.2504 55.9336C71.2504 55.4512 71.4448 55.066 71.8336 54.778C72.2296 54.4828 72.7336 54.3352 73.3456 54.3352C73.8136 54.3352 74.2348 54.4468 74.6092 54.67C74.9908 54.8932 75.2572 55.192 75.4084 55.5664L74.5228 55.9336C74.422 55.7104 74.2564 55.5376 74.026 55.4152C73.8028 55.2856 73.5508 55.2208 73.27 55.2208C73.0108 55.2208 72.7768 55.2856 72.568 55.4152C72.3664 55.5448 72.2656 55.7032 72.2656 55.8904C72.2656 56.1928 72.55 56.4088 73.1188 56.5384L73.918 56.7436C74.9692 57.0028 75.4948 57.532 75.4948 58.3312ZM80.4097 58.3312C80.4097 58.792 80.2081 59.1808 79.8049 59.4976C79.4017 59.8144 78.8941 59.9728 78.2821 59.9728C77.7493 59.9728 77.2813 59.836 76.8781 59.5624C76.4749 59.2816 76.1869 58.9144 76.0141 58.4608L76.8997 58.0828C77.0293 58.3996 77.2165 58.648 77.4613 58.828C77.7133 59.0008 77.9869 59.0872 78.2821 59.0872C78.5989 59.0872 78.8617 59.0188 79.0705 58.882C79.2865 58.7452 79.3945 58.5832 79.3945 58.396C79.3945 58.0576 79.1353 57.8092 78.6169 57.6508L77.7097 57.424C76.6801 57.1648 76.1653 56.668 76.1653 55.9336C76.1653 55.4512 76.3597 55.066 76.7485 54.778C77.1445 54.4828 77.6485 54.3352 78.2605 54.3352C78.7285 54.3352 79.1497 54.4468 79.5241 54.67C79.9057 54.8932 80.1721 55.192 80.3233 55.5664L79.4377 55.9336C79.3369 55.7104 79.1713 55.5376 78.9409 55.4152C78.7177 55.2856 78.4657 55.2208 78.1849 55.2208C77.9257 55.2208 77.6917 55.2856 77.4829 55.4152C77.2813 55.5448 77.1805 55.7032 77.1805 55.8904C77.1805 56.1928 77.4649 56.4088 78.0337 56.5384L78.8329 56.7436C79.8841 57.0028 80.4097 57.532 80.4097 58.3312ZM82.507 52.6828C82.507 52.8772 82.4386 53.0428 82.3018 53.1796C82.165 53.3164 81.9994 53.3848 81.805 53.3848C81.6106 53.3848 81.445 53.3164 81.3082 53.1796C81.1714 53.0428 81.103 52.8772 81.103 52.6828C81.103 52.4884 81.1714 52.3228 81.3082 52.186C81.445 52.0492 81.6106 51.9808 81.805 51.9808C81.9994 51.9808 82.165 52.0492 82.3018 52.186C82.4386 52.3228 82.507 52.4884 82.507 52.6828ZM82.3018 54.508V59.8H81.3082V54.508H82.3018ZM86.392 59.9728C86.0032 59.9728 85.6468 59.89 85.3228 59.7244C85.006 59.5588 84.7612 59.3392 84.5884 59.0656H84.5452V59.8H83.5948V52.0672H84.5884V54.508L84.5452 55.2424H84.5884C84.7612 54.9688 85.006 54.7492 85.3228 54.5836C85.6468 54.418 86.0032 54.3352 86.392 54.3352C87.0904 54.3352 87.6808 54.6088 88.1632 55.156C88.66 55.7104 88.9084 56.3764 88.9084 57.154C88.9084 57.9388 88.66 58.6048 88.1632 59.152C87.6808 59.6992 87.0904 59.9728 86.392 59.9728ZM86.23 59.0656C86.7052 59.0656 87.1048 58.8856 87.4288 58.5256C87.7528 58.1728 87.9148 57.7156 87.9148 57.154C87.9148 56.5996 87.7528 56.1424 87.4288 55.7824C87.1048 55.4224 86.7052 55.2424 86.23 55.2424C85.7476 55.2424 85.3444 55.4224 85.0204 55.7824C84.7036 56.1424 84.5452 56.5996 84.5452 57.154C84.5452 57.7156 84.7036 58.1764 85.0204 58.5364C85.3444 58.8892 85.7476 59.0656 86.23 59.0656ZM90.7584 52.0672V59.8H89.7648V52.0672H90.7584ZM94.2923 59.9728C93.5147 59.9728 92.8739 59.7064 92.3699 59.1736C91.8659 58.6408 91.6139 57.9676 91.6139 57.154C91.6139 56.3476 91.8587 55.678 92.3483 55.1452C92.8379 54.6052 93.4643 54.3352 94.2275 54.3352C95.0123 54.3352 95.6351 54.5908 96.0959 55.102C96.5639 55.606 96.7979 56.3152 96.7979 57.2296L96.7871 57.3376H92.6291C92.6435 57.856 92.8163 58.2736 93.1475 58.5904C93.4787 58.9072 93.8747 59.0656 94.3355 59.0656C94.9691 59.0656 95.4659 58.7488 95.8259 58.1152L96.7115 58.5472C96.4739 58.9936 96.1427 59.3428 95.7179 59.5948C95.3003 59.8468 94.8251 59.9728 94.2923 59.9728ZM92.7047 56.5168H95.7395C95.7107 56.1496 95.5595 55.8472 95.2859 55.6096C95.0195 55.3648 94.6595 55.2424 94.2059 55.2424C93.8315 55.2424 93.5075 55.3576 93.2339 55.588C92.9675 55.8184 92.7911 56.128 92.7047 56.5168ZM102.456 59.9728C101.678 59.9728 101.037 59.7064 100.533 59.1736C100.029 58.6408 99.7772 57.9676 99.7772 57.154C99.7772 56.3476 100.022 55.678 100.512 55.1452C101.001 54.6052 101.628 54.3352 102.391 54.3352C103.176 54.3352 103.798 54.5908 104.259 55.102C104.727 55.606 104.961 56.3152 104.961 57.2296L104.95 57.3376H100.792C100.807 57.856 100.98 58.2736 101.311 58.5904C101.642 58.9072 102.038 59.0656 102.499 59.0656C103.132 59.0656 103.629 58.7488 103.989 58.1152L104.875 58.5472C104.637 58.9936 104.306 59.3428 103.881 59.5948C103.464 59.8468 102.988 59.9728 102.456 59.9728ZM100.868 56.5168H103.903C103.874 56.1496 103.723 55.8472 103.449 55.6096C103.183 55.3648 102.823 55.2424 102.369 55.2424C101.995 55.2424 101.671 55.3576 101.397 55.588C101.131 55.8184 100.954 56.128 100.868 56.5168ZM108.281 57.1108L110.171 59.8H109.004L107.698 57.8452L106.412 59.8H105.246L107.114 57.1108L105.289 54.508H106.412L107.719 56.3764L108.961 54.508H110.128L108.281 57.1108ZM113.451 59.0656C113.926 59.0656 114.325 58.8856 114.649 58.5256C114.973 58.1728 115.135 57.7156 115.135 57.154C115.135 56.5996 114.973 56.1424 114.649 55.7824C114.325 55.4224 113.926 55.2424 113.451 55.2424C112.968 55.2424 112.565 55.4224 112.241 55.7824C111.924 56.1424 111.766 56.5996 111.766 57.154C111.766 57.7156 111.924 58.1764 112.241 58.5364C112.565 58.8892 112.968 59.0656 113.451 59.0656ZM113.613 59.9728C113.224 59.9728 112.867 59.89 112.543 59.7244C112.227 59.5588 111.982 59.3392 111.809 59.0656H111.766L111.809 59.8V62.1328H110.815V54.508H111.766V55.2424H111.809C111.982 54.9688 112.227 54.7492 112.543 54.5836C112.867 54.418 113.224 54.3352 113.613 54.3352C114.311 54.3352 114.901 54.6088 115.384 55.156C115.881 55.7104 116.129 56.3764 116.129 57.154C116.129 57.9388 115.881 58.6048 115.384 59.152C114.901 59.6992 114.311 59.9728 113.613 59.9728ZM119.415 59.9728C118.637 59.9728 117.997 59.7064 117.493 59.1736C116.989 58.6408 116.737 57.9676 116.737 57.154C116.737 56.3476 116.981 55.678 117.471 55.1452C117.961 54.6052 118.587 54.3352 119.35 54.3352C120.135 54.3352 120.758 54.5908 121.219 55.102C121.687 55.606 121.921 56.3152 121.921 57.2296L121.91 57.3376H117.752C117.766 57.856 117.939 58.2736 118.27 58.5904C118.601 58.9072 118.997 59.0656 119.458 59.0656C120.092 59.0656 120.589 58.7488 120.949 58.1152L121.834 58.5472C121.597 58.9936 121.265 59.3428 120.841 59.5948C120.423 59.8468 119.948 59.9728 119.415 59.9728ZM117.827 56.5168H120.862C120.833 56.1496 120.682 55.8472 120.409 55.6096C120.142 55.3648 119.782 55.2424 119.329 55.2424C118.954 55.2424 118.63 55.3576 118.357 55.588C118.09 55.8184 117.914 56.128 117.827 56.5168ZM123.823 59.8H122.829V54.508H123.78V55.372H123.823C123.924 55.0912 124.129 54.8536 124.438 54.6592C124.755 54.4576 125.065 54.3568 125.367 54.3568C125.655 54.3568 125.9 54.4 126.102 54.4864L125.799 55.4476C125.677 55.3972 125.482 55.372 125.216 55.372C124.842 55.372 124.514 55.5232 124.233 55.8256C123.96 56.128 123.823 56.4808 123.823 56.884V59.8ZM128.038 52.6828C128.038 52.8772 127.969 53.0428 127.833 53.1796C127.696 53.3164 127.53 53.3848 127.336 53.3848C127.141 53.3848 126.976 53.3164 126.839 53.1796C126.702 53.0428 126.634 52.8772 126.634 52.6828C126.634 52.4884 126.702 52.3228 126.839 52.186C126.976 52.0492 127.141 51.9808 127.336 51.9808C127.53 51.9808 127.696 52.0492 127.833 52.186C127.969 52.3228 128.038 52.4884 128.038 52.6828ZM127.833 54.508V59.8H126.839V54.508H127.833ZM130.119 59.8H129.126V54.508H130.076V55.2424H130.119C130.27 54.9832 130.501 54.7672 130.81 54.5944C131.127 54.4216 131.44 54.3352 131.75 54.3352C132.139 54.3352 132.481 54.4252 132.776 54.6052C133.071 54.7852 133.287 55.0336 133.424 55.3504C133.863 54.6736 134.472 54.3352 135.249 54.3352C135.861 54.3352 136.333 54.5224 136.664 54.8968C136.995 55.2712 137.161 55.804 137.161 56.4952V59.8H136.167V56.6464C136.167 56.1496 136.077 55.7932 135.897 55.5772C135.717 55.354 135.415 55.2424 134.99 55.2424C134.608 55.2424 134.288 55.4044 134.029 55.7284C133.77 56.0524 133.64 56.434 133.64 56.8732V59.8H132.646V56.6464C132.646 56.1496 132.556 55.7932 132.376 55.5772C132.196 55.354 131.894 55.2424 131.469 55.2424C131.088 55.2424 130.767 55.4044 130.508 55.7284C130.249 56.0524 130.119 56.434 130.119 56.8732V59.8ZM140.699 59.9728C139.921 59.9728 139.28 59.7064 138.776 59.1736C138.272 58.6408 138.02 57.9676 138.02 57.154C138.02 56.3476 138.265 55.678 138.755 55.1452C139.244 54.6052 139.871 54.3352 140.634 54.3352C141.419 54.3352 142.041 54.5908 142.502 55.102C142.97 55.606 143.204 56.3152 143.204 57.2296L143.193 57.3376H139.035C139.05 57.856 139.223 58.2736 139.554 58.5904C139.885 58.9072 140.281 59.0656 140.742 59.0656C141.375 59.0656 141.872 58.7488 142.232 58.1152L143.118 58.5472C142.88 58.9936 142.549 59.3428 142.124 59.5948C141.707 59.8468 141.231 59.9728 140.699 59.9728ZM139.111 56.5168H142.146C142.117 56.1496 141.966 55.8472 141.692 55.6096C141.426 55.3648 141.066 55.2424 140.612 55.2424C140.238 55.2424 139.914 55.3576 139.64 55.588C139.374 55.8184 139.197 56.128 139.111 56.5168ZM144.113 54.508H145.063V55.2424H145.106C145.258 54.9832 145.488 54.7672 145.798 54.5944C146.114 54.4216 146.442 54.3352 146.78 54.3352C147.428 54.3352 147.925 54.5224 148.271 54.8968C148.624 55.264 148.8 55.7896 148.8 56.4736V59.8H147.806V56.5384C147.785 55.6744 147.349 55.2424 146.5 55.2424C146.104 55.2424 145.772 55.4044 145.506 55.7284C145.24 56.0452 145.106 56.4268 145.106 56.8732V59.8H144.113V54.508ZM151.787 59.8864C151.355 59.8864 150.995 59.7532 150.707 59.4868C150.427 59.2204 150.283 58.8496 150.275 58.3744V55.4152H149.347V54.508H150.275V52.888H151.269V54.508H152.565V55.4152H151.269V58.0504C151.269 58.4032 151.337 58.6444 151.474 58.774C151.611 58.8964 151.766 58.9576 151.939 58.9576C152.018 58.9576 152.093 58.9504 152.165 58.936C152.245 58.9144 152.317 58.8892 152.381 58.8604L152.695 59.746C152.435 59.8396 152.133 59.8864 151.787 59.8864ZM157.666 58.3312C157.666 58.792 157.464 59.1808 157.061 59.4976C156.658 59.8144 156.15 59.9728 155.538 59.9728C155.005 59.9728 154.537 59.836 154.134 59.5624C153.731 59.2816 153.443 58.9144 153.27 58.4608L154.156 58.0828C154.285 58.3996 154.472 58.648 154.717 58.828C154.969 59.0008 155.243 59.0872 155.538 59.0872C155.855 59.0872 156.118 59.0188 156.326 58.882C156.542 58.7452 156.65 58.5832 156.65 58.396C156.65 58.0576 156.391 57.8092 155.873 57.6508L154.966 57.424C153.936 57.1648 153.421 56.668 153.421 55.9336C153.421 55.4512 153.616 55.066 154.004 54.778C154.4 54.4828 154.904 54.3352 155.516 54.3352C155.984 54.3352 156.406 54.4468 156.78 54.67C157.162 54.8932 157.428 55.192 157.579 55.5664L156.694 55.9336C156.593 55.7104 156.427 55.5376 156.197 55.4152C155.974 55.2856 155.722 55.2208 155.441 55.2208C155.182 55.2208 154.948 55.2856 154.739 55.4152C154.537 55.5448 154.436 55.7032 154.436 55.8904C154.436 56.1928 154.721 56.4088 155.29 56.5384L156.089 56.7436C157.14 57.0028 157.666 57.532 157.666 58.3312Z" fill="#FFFFFE"/>
<defs>
<linearGradient id="paint0_linear" x1="10.4647" y1="2.2275" x2="10.4647" y2="37.549" gradientUnits="userSpaceOnUse">
<stop stop-color="#7CD9EE"/>
<stop offset="1" stop-color="#4FA1FF"/>
</linearGradient>
</defs>
</svg>
